<?xml version="1.0" standalone="no"?> <!DOCTYPE svg PUBLIC "-//W3C//DTD SVG 1.0//EN" "http://www.w3.org/TR/2001/REC-SVG-20010904/DTD/svg10.dtd" > <svg xmlns="http://www.w3.org/2000/svg" width="100%" height="100%">
<defs >
<font id="georgiab" horiz-adv-x="1051" ><font-face
    font-family="Georgia"
    units-per-em="2048"
    panose-1="2 4 8 2 5 4 5 2 2 3"
    ascent="1878"
    descent="-449"
    alphabetic="0" />
<missing-glyph horiz-adv-x="2048" d="M256 0V1536H1792V0H256ZM384 128H1664V1408H384V128Z" />
<glyph unicode=" " glyph-name="space" horiz-adv-x="520" />
<glyph unicode="!" glyph-name="exclam" horiz-adv-x="771" d="M580 1261Q580 1220 566 1153T529 994Q508 908 481 780T424 462H347Q317 653 290 780T242 993Q223 1072 207 1147T191 1261Q191 1338 248 1392T385 1447Q464 1447 522 1393T580 1261ZM578 156Q578
80 521 26T386 -29Q308 -29 251 25T193 156Q193 232 250 287T386 343Q463 343 520 288T578 156Z" />
<glyph unicode="&quot;" glyph-name="quotedbl" horiz-adv-x="1044" d="M924 1369Q924 1314 876 1156T793 823H724Q689 997 641 1155T593 1369Q593 1433 636 1481T759 1529Q837 1529 880 1481T924 1369ZM451 1369Q451 1314 403 1156T320 823H251Q216 997 168 1155T120
1369Q120 1433 163 1481T286 1529Q364 1529 407 1481T451 1369Z" />
<glyph unicode="#" glyph-name="numbersign" horiz-adv-x="1440" d="M1285 748H1023L945 491H1225V331H897L796 0H647L748 331H518L417 0H268L369 331H155V491H417L496 748H215V908H544L648 1249H797L693 908H923L1027 1249H1176L1072 908H1285V748ZM877 750H644L565
489H797L877 750Z" />
<glyph unicode="$" glyph-name="dollar" horiz-adv-x="1312" d="M1207 411Q1207 225 1065 111T714 -18V-299H615V-18Q404 -14 255 78T106 293Q106 364 149 413T268 462Q347 462 393 421T440 308Q440 257 423 206T395 125Q422 111 484 89T615 67V516Q601 518 588
519T558 523Q366 541 255 639T144 895Q144 965 170 1032T250 1157Q305 1217 395 1257T615 1306V1524H714V1306Q919 1298 1046 1221T1173 1029Q1173 961 1132 914T1017 866Q941 866 897 906T853 1014Q853 1061 868 1106T896 1187Q869 1201 821 1210T714 1221V812Q729
811 752 807T792 801Q997 771 1102 671T1207 411ZM615 821V1221Q501 1209 441 1154T380 1022Q380 933 429 887T573 827Q588 825 595 824T615 821ZM973 293Q973 376 924 427T769 499Q758 501 743 503T714 507V67Q851 80 912 142T973 293Z" />
<glyph unicode="%" glyph-name="percent" horiz-adv-x="1801" d="M870 1086Q870 919 758 816T481 712Q315 712 203 815T91 1086Q91 1253 203 1356T480 1460Q645 1460 757 1357T870 1086ZM605 1084Q605 1222 578 1304T479 1387Q414 1387 385 1310T356 1094Q356
950 382 868T483 785Q547 785 576 862T605 1084ZM1710 339Q1710 172 1598 69T1321 -35Q1155 -35 1043 68T931 339Q931 506 1043 609T1320 713Q1485 713 1597 610T1710 339ZM1445 337Q1445 475 1418 557T1319 640Q1254 640 1225 563T1196 347Q1196 203 1222 121T1323
38Q1387 38 1416 115T1445 337ZM1574 1428L391 0H228L1408 1428H1574Z" />
<glyph unicode="&amp;" glyph-name="ampersand" horiz-adv-x="1637" d="M1646 0H1058Q1034 27 996 70T931 148Q825 50 720 8T495 -35Q308 -35 189 66T69 329Q69 410 90 468T160 584Q206 640 274 684T427 768Q337 882 302 962T266 1126Q266 1270 386 1363T673 1457Q829
1457 926 1383T1023 1187Q1023 1081 965 998T772 834Q881 694 940 624T1099 438Q1162 531 1193 609T1225 740Q1225 770 1181 788T1055 823V899H1614V823Q1523 815 1480 801T1394 744Q1376 726 1350 681T1299 593Q1270 542 1237 486T1157 369Q1249 261 1308 208T1406
134Q1449 111 1515 98T1646 80V0ZM871 1172Q871 1260 829 1310T718 1361Q653 1361 613 1320T573 1211Q573 1153 610 1080T724 901Q800 954 835 1024T871 1172ZM878 213Q794 314 683 448T475 703Q422 651 399 582T375 442Q375 309 460 225T676 141Q737 141 782 156T878
213Z" />
<glyph unicode="&apos;" glyph-name="quotesingle" horiz-adv-x="551" d="M441 1369Q441 1314 393 1156T310 823H241Q206 997 158 1155T110 1369Q110 1433 153 1481T276 1529Q354 1529 397 1481T441 1369Z" />
<glyph unicode="(" glyph-name="parenleft" horiz-adv-x="915" d="M848 -328Q711 -310 580 -247T345 -70Q241 44 178 210T115 602Q115 827 178 993T345 1274Q448 1387 579 1450T848 1532V1442Q659 1407 558 1199T457 602Q457 214 558 6T848 -238V-328Z" />
<glyph unicode=")" glyph-name="parenright" horiz-adv-x="915" d="M801 602Q801 377 738 211T571 -70Q468 -183 337 -246T68 -328V-238Q257 -203 358 5T459 602Q459 990 358 1198T68 1442V1532Q205 1514 336 1451T571 1274Q675 1160 738 994T801 602Z" />
<glyph unicode="*" glyph-name="asterisk" horiz-adv-x="987" d="M907 1083Q907 1038 882 1018T817 997Q792 997 714 1019T547 1052Q605 976 675 909T745 795Q745 762 716 738T655 713Q633 713 614 725T581 761Q569 783 549 861T494 1021Q461 943 439 861T407
761Q391 736 375 725T333 713Q300 713 272 736T243 795Q243 842 313 909T441 1052Q357 1042 276 1020T171 997Q132 997 107 1017T81 1083Q81 1124 106 1146T171 1169Q202 1169 270 1149T441 1116Q375 1200 309 1263T243 1373Q243 1406 272 1430T333 1455Q356 1455
374 1443T407 1408Q419 1386 440 1307T494 1147Q527 1229 548 1308T581 1408Q593 1429 612 1442T655 1455Q688 1455 716 1432T745 1373Q745 1327 683 1266T548 1116Q648 1129 719 1149T817 1169Q856 1169 881 1147T907 1083Z" />
<glyph unicode="+" glyph-name="plus" horiz-adv-x="1440" d="M1275 493H802V20H637V493H164V656H637V1129H802V656H1275V493Z" />
<glyph unicode="," glyph-name="comma" horiz-adv-x="672" d="M539 53Q539 -69 437 -196T192 -389L148 -318Q197 -292 240 -262T318 -192Q353 -150 373 -107T399 0H343Q241 0 189 46T137 173Q137 237 187 288T310 340Q422 340 480 264T539 53Z" />
<glyph unicode="-" glyph-name="hyphen" horiz-adv-x="776" d="M691 435H85V656H691V435Z" />
<glyph unicode="." glyph-name="period" horiz-adv-x="672" d="M534 166Q534 87 476 29T337 -29Q256 -29 198 28T139 166Q139 246 197 304T337 363Q417 363 475 304T534 166Z" />
<glyph unicode="/" glyph-name="slash" horiz-adv-x="966" d="M898 1523L207 -424H27L716 1523H898Z" />
<glyph unicode="0" glyph-name="zero" horiz-adv-x="1436" d="M1184 932Q1260 852 1296 750T1333 537Q1333 406 1288 301T1163 122Q1080 46 970 6T717 -34Q566 -34 451 13T258 137Q182 213 143 316T103 537Q103 654 140 754T256 935Q332 1014 449 1061T718 1109Q875
1109 992 1060T1184 932ZM902 187Q931 254 943 336T956 537Q956 643 945 728T906 879Q878 947 832 984T719 1021Q651 1021 605 985T530 881Q504 820 492 732T480 537Q480 426 490 348T529 198Q554 133 601 93T717 53Q781 53 828 89T902 187Z" />
<glyph unicode="1" glyph-name="one" horiz-adv-x="1003" d="M946 0H121V76Q151 78 216 86T306 102Q336 112 353 136T370 202V836H117V931H172Q259 931 322 950T428 996Q471 1024 498 1054T542 1107H718Q715 1042 712 955T709 799V213Q709 177 724 151T769 110Q795
98 856 88T946 76V0Z" />
<glyph unicode="2" glyph-name="two" horiz-adv-x="1283" d="M1194 0H110V181Q181 253 265 312T437 418Q530 467 593 505T692 586Q728 625 743 671T759 774Q759 901 699 959T540 1017Q509 1017 482 1013T424 996Q439 951 453 903T467 796Q467 725 416 683T286
641Q211 641 167 690T122 809Q122 931 264 1020T610 1109Q846 1109 991 1028T1137 767Q1137 674 1099 617T985 517Q918 478 837 453T662 405Q563 380 490 352T359 285V274H1194V0Z" />
<glyph unicode="3" glyph-name="three" horiz-adv-x="1279" d="M1036 336Q1096 296 1136 230T1176 66Q1176 -121 997 -245T536 -369Q334 -369 193 -283T52 -70Q52 1 97 50T219 99Q298 99 348 57T399 -57Q399 -106 382 -166T354 -256Q376 -266 411 -271T493 -277Q551
-277 606 -258T703 -196Q746 -151 769 -91T793 70Q793 127 783 178T744 267Q716 305 668 326T544 348H417V469H507Q633 469 689 543T746 771Q746 894 692 955T534 1017Q495 1017 466 1013T407 996Q418 962 434 901T450 797Q450 726 401 684T273 642Q198 642 154
691T109 810Q109 934 252 1021T613 1109Q763 1109 861 1074T1017 988Q1073 938 1094 881T1116 777Q1116 733 1098 678T1043 580Q999 529 928 492T762 435V419Q827 415 902 395T1036 336Z" />
<glyph unicode="4" glyph-name="four" horiz-adv-x="1330" d="M1261 10H1046V-369H711V10H49V194L767 1103H1046V221H1261V10ZM711 221V864L202 221H711Z" />
<glyph unicode="5" glyph-name="five" horiz-adv-x="1227" d="M964 474Q1039 424 1090 340T1141 130Q1141 -90 971 -229T535 -369Q330 -369 193 -281T56 -73Q56 -2 101 47T223 96Q302 96 352 54T403 -60Q403 -110 386 -169T358 -259Q382 -268 414 -272T474 -277Q531
-277 586 -252T680 -177Q725 -121 748 -45T771 129Q771 270 696 360T500 451Q407 451 344 414T231 315L153 341L250 1077H1095V801H322L281 471Q335 505 420 536T620 567Q709 567 795 548T964 474Z" />
<glyph unicode="6" glyph-name="six" horiz-adv-x="1327" d="M1243 463Q1243 251 1084 108T676 -35Q417 -35 260 127T103 564Q103 930 350 1169T1021 1458L1044 1359L938 1341Q817 1308 736 1251T601 1119Q550 1048 521 959T477 782Q564 860 649 887T833 914Q1005
914 1124 789T1243 463ZM873 436Q873 594 818 687T669 780Q607 780 562 759T470 671Q470 666 470 654T468 621Q467 599 467 580T466 548Q466 308 524 181T675 53Q764 53 818 153T873 436Z" />
<glyph unicode="7" glyph-name="seven" horiz-adv-x="1135" d="M1144 958L416 -369H266L940 808H482Q395 808 346 807T256 787Q223 772 200 718T162 584H89V1077H1144V958Z" />
<glyph unicode="8" glyph-name="eight" horiz-adv-x="1385" d="M1281 397Q1281 213 1117 88T669 -37Q416 -37 260 70T104 344Q104 473 187 556T451 682Q307 747 234 846T160 1067Q160 1234 319 1347T714 1460Q942 1460 1083 1360T1225 1112Q1225 998 1148 921T918
797Q1110 728 1195 628T1281 397ZM891 1114Q891 1230 840 1301T696 1373Q609 1373 552 1312T495 1156Q495 1090 520 1046T591 968Q633 937 709 900T846 833Q868 883 879 955T891 1114ZM945 296Q945 366 915 412T829 495Q773 531 687 569T522 646Q489 607 464 529T439
364Q439 217 510 134T697 51Q813 51 879 119T945 296Z" />
<glyph unicode="9" glyph-name="nine" horiz-adv-x="1327" d="M1224 508Q1224 144 978 -87T306 -375L283 -276L389 -258Q512 -223 593 -168T726 -40Q780 35 808 119T850 292Q762 215 680 191T494 166Q408 166 333 200T203 293Q147 353 116 437T84 621Q84 832 246
970T651 1109Q914 1109 1069 946T1224 508ZM859 453Q859 467 860 487T861 526Q861 766 804 893T654 1021Q565 1021 510 924T454 644Q454 484 510 389T659 294Q717 294 766 317T857 403Q857 408 858 420T859 453Z" />
<glyph unicode=":" glyph-name="colon" horiz-adv-x="752" d="M574 799Q574 720 516 662T377 604Q296 604 238 661T179 799Q179 879 237 937T377 996Q457 996 515 937T574 799ZM574 166Q574 87 516 29T377 -29Q296 -29 238 28T179 166Q179 246 237 304T377 363Q457
363 515 304T574 166Z" />
<glyph unicode=";" glyph-name="semicolon" horiz-adv-x="752" d="M574 799Q574 720 516 662T377 604Q296 604 238 661T179 799Q179 879 237 937T377 996Q457 996 515 937T574 799ZM579 53Q579 -69 477 -196T232 -389L188 -318Q237 -292 280 -262T358 -192Q393
-150 413 -107T439 0H383Q281 0 229 46T177 173Q177 237 227 288T350 340Q462 340 520 264T579 53Z" />
<glyph unicode="&lt;" glyph-name="less" horiz-adv-x="1440" d="M1209 6L209 506V645L1209 1145V957L423 575L1209 194V6Z" />
<glyph unicode="=" glyph-name="equal" horiz-adv-x="1440" d="M1255 700H185V863H1255V700ZM1255 286H185V449H1255V286Z" />
<glyph unicode="&gt;" glyph-name="greater" horiz-adv-x="1440" d="M1231 506L231 6V194L1017 575L231 957V1145L1231 645V506Z" />
<glyph unicode="?" glyph-name="question" horiz-adv-x="1123" d="M1016 1037Q1016 836 878 711T510 568L504 432H415V821Q560 833 642 912T724 1129Q724 1238 667 1303T512 1369Q471 1369 439 1361T377 1334Q387 1302 400 1252T414 1158Q414 1088 369 1050T242
1011Q166 1011 123 1059T79 1177Q79 1292 210 1372T526 1452Q745 1452 880 1338T1016 1037ZM656 156Q656 80 599 26T464 -29Q386 -29 329 25T271 156Q271 232 328 287T464 343Q541 343 598 288T656 156Z" />
<glyph unicode="@" glyph-name="at" horiz-adv-x="1980" d="M1658 1173Q1745 1081 1787 963T1830 717Q1830 465 1688 290T1333 115Q1223 115 1152 152T1061 248H1056Q1033 223 1008 198T953 155Q921 137 893 129T818 120Q695 120 627 197T558 402Q558 498 598
599T709 785Q777 866 873 918T1072 971Q1141 971 1176 947T1229 872H1231L1263 959H1520L1319 404Q1311 384 1305 348T1298 293Q1298 252 1316 229T1373 205Q1530 205 1625 349T1720 728Q1720 845 1681 944T1565 1117Q1488 1191 1372 1233T1107 1276Q964 1276 831
1223T588 1065Q481 964 416 818T350 490Q350 313 402 179T545 -46Q637 -137 761 -183T1035 -229Q1206 -229 1338 -185T1574 -59L1613 -121Q1499 -212 1357 -267T1028 -323Q871 -323 712 -273T432 -123Q309 -24 234 127T158 477Q158 652 226 813T419 1101Q542 1225
722 1301T1116 1377Q1304 1377 1437 1322T1658 1173ZM1189 760Q1188 815 1162 850T1083 885Q1033 885 987 840T903 722Q867 650 846 558T824 376Q824 308 843 272T906 236Q944 236 974 255T1036 319L1189 760Z" />
<glyph unicode="A" glyph-name="A" horiz-adv-x="1553" d="M1609 0H836V78Q890 82 963 97T1036 136Q1036 144 1035 154T1026 181L905 475H415Q398 434 378 379T342 281Q323 225 320 200T316 165Q316 133 364 111T526 78V0H-56V78Q-23 80 18 88T84 112Q125 136
153 171T201 254Q317 535 433 817T691 1439H891Q1087 957 1198 677T1387 213Q1400 183 1420 159T1477 112Q1505 96 1542 88T1609 78V0ZM864 574L658 1088L455 574H864Z" />
<glyph unicode="B" glyph-name="B" horiz-adv-x="1551" d="M1322 651Q1386 607 1426 541T1466 384Q1466 276 1421 202T1290 84Q1200 38 1083 19T806 0H69V78Q100 81 147 87T213 101Q250 116 263 140T277 204V1204Q277 1240 266 1264T213 1306Q182 1319 141 1327T69
1341V1419H840Q1131 1419 1260 1339T1389 1103Q1389 1031 1360 977T1277 882Q1228 845 1160 818T1014 773V754Q1092 746 1176 720T1322 651ZM1000 1078Q1000 1196 934 1262T734 1328Q715 1328 685 1327T632 1324V798H684Q846 798 923 873T1000 1078ZM1070 397Q1070
545 982 624T729 703Q710 703 679 702T632 699V180Q641 143 688 118T802 92Q921 92 995 172T1070 397Z" />
<glyph unicode="C" glyph-name="C" horiz-adv-x="1465" d="M813 -38Q657 -38 521 12T284 159Q185 253 128 391T71 696Q71 861 128 1001T290 1245Q392 1346 535 1401T841 1457Q959 1457 1056 1429T1220 1364L1282 1419H1369L1378 901H1290Q1215 1138 1110 1249T854
1360Q666 1360 568 1195T470 730Q470 561 503 442T591 249Q649 173 728 138T903 102Q1043 102 1152 178T1352 408L1438 356Q1395 268 1340 199T1213 79Q1134 24 1039 -7T813 -38Z" />
<glyph unicode="D" glyph-name="D" horiz-adv-x="1708" d="M1347 1273Q1477 1188 1557 1047T1637 700Q1637 520 1566 387T1376 168Q1256 83 1104 42T784 0H69V78Q101 79 149 84T213 96Q249 111 263 136T277 198V1204Q277 1238 264 1265T213 1310Q175 1327 133
1333T67 1341V1419H822Q943 1419 1081 1388T1347 1273ZM1143 256Q1192 336 1214 446T1237 701Q1237 842 1207 958T1119 1156Q1061 1238 975 1283T778 1328Q743 1328 699 1327T632 1324V247Q632 211 641 184T674 135Q697 114 730 103T818 91Q931 91 1012 133T1143
256Z" />
<glyph unicode="E" glyph-name="E" horiz-adv-x="1477" d="M1327 1057H1251Q1222 1138 1151 1221T1010 1319Q980 1326 927 1327T838 1329H632V781H778Q833 781 878 794T960 844Q983 867 1006 925T1037 1026H1113V434H1037Q1031 476 1007 539T960 627Q927 663 882
676T778 690H632V281Q632 217 641 180T677 122Q702 103 745 97T864 91Q899 91 948 92T1034 98Q1076 103 1112 113T1167 142Q1215 191 1275 291T1354 442H1427L1400 0H69V78Q97 80 145 86T213 100Q251 116 264 140T277 203V1204Q277 1240 266 1263T213 1306Q187
1318 140 1328T69 1341V1419H1327V1057Z" />
<glyph unicode="F" glyph-name="F" horiz-adv-x="1375" d="M1344 1040H1267Q1238 1123 1165 1216T1025 1319Q995 1323 945 1326T853 1329H632V772H773Q833 772 877 785T955 834Q980 859 1003 917T1032 1018H1108V421H1032Q1028 466 1001 530T955 616Q926 648 881
663T773 679H632V209Q632 173 645 148T697 106Q719 97 757 90T834 78V0H69V78Q98 81 146 86T213 100Q249 114 263 139T277 203V1204Q277 1238 265 1263T213 1306Q185 1318 139 1328T69 1341V1419H1344V1040Z" />
<glyph unicode="G" glyph-name="G" horiz-adv-x="1653" d="M1649 577Q1618 574 1594 570T1534 554Q1493 541 1480 511T1467 448V283Q1467 233 1468 203T1471 127Q1371 67 1176 14T816 -39Q662 -39 527 8T290 149Q188 242 130 380T71 696Q71 862 126 1003T285 1246Q387
1347 533 1402T858 1457Q979 1457 1082 1428T1252 1364L1314 1419H1401L1410 901H1322Q1246 1134 1140 1247T872 1360Q680 1360 576 1192T471 729Q471 416 573 239T864 62Q952 62 1020 88T1127 150V438Q1127 474 1114 498T1062 541Q1032 555 987 564T912 577V655H1649V577Z"
/>
<glyph unicode="H" glyph-name="H" horiz-adv-x="1870" d="M1801 0H1034V78Q1059 80 1107 84T1173 96Q1210 111 1224 135T1238 198V687H632V209Q632 175 646 148T696 106Q715 98 761 89T836 78V0H69V78Q94 79 142 84T213 98Q249 111 263 137T277 200V1204Q277
1239 265 1263T213 1305Q184 1318 137 1328T69 1341V1419H836V1341Q805 1339 762 1331T696 1316Q657 1303 645 1275T632 1214V790H1238V1204Q1238 1239 1225 1263T1173 1305Q1147 1317 1104 1327T1034 1341V1419H1801V1341Q1769 1339 1729 1333T1657 1316Q1619
1303 1606 1275T1593 1214V209Q1593 173 1606 148T1657 106Q1681 96 1726 88T1801 78V0Z" />
<glyph unicode="I" glyph-name="I" horiz-adv-x="913" d="M850 0H63V78Q90 80 142 84T215 96Q252 111 265 135T279 198V1204Q279 1238 266 1264T215 1306Q191 1316 144 1326T63 1341V1419H850V1341Q820 1338 775 1333T699 1317Q660 1304 647 1277T634 1214V209Q634
173 647 148T699 106Q720 97 768 89T850 78V0Z" />
<glyph unicode="J" glyph-name="J" horiz-adv-x="1219" d="M1166 1341Q1126 1336 1098 1331T1035 1317Q994 1306 983 1278T971 1214V432Q971 324 928 234T808 83Q731 23 636 -7T433 -38Q246 -38 132 52T17 299Q17 392 69 453T214 514Q301 514 352 463T404 337Q404
273 360 219T258 118V105Q267 85 297 71T358 57Q478 57 546 143T615 403V1204Q615 1240 604 1264T551 1306Q521 1319 479 1328T408 1341V1419H1166V1341Z" />
<glyph unicode="K" glyph-name="K" horiz-adv-x="1673" d="M1736 0H1174Q1047 195 945 326T684 655H632V209Q632 173 645 148T697 106Q715 98 750 90T821 78V0H67V78Q94 80 143 84T213 96Q249 110 263 135T277 198V1204Q277 1239 265 1263T213 1306Q182 1320 138
1329T67 1341V1419H846V1341Q815 1338 772 1333T697 1317Q658 1304 645 1276T632 1214V736H674Q752 807 856 907T1017 1071Q1097 1160 1134 1212T1172 1302Q1172 1319 1136 1328T1026 1341V1419H1643V1341Q1531 1329 1455 1301T1304 1205Q1197 1109 1128 1039T949
858Q1045 741 1180 572T1449 241Q1483 200 1527 163T1624 102Q1649 91 1681 85T1736 78V0Z" />
<glyph unicode="L" glyph-name="L" horiz-adv-x="1404" d="M1404 455L1376 0H69V78Q104 81 151 87T213 100Q249 114 263 139T277 203V1204Q277 1240 266 1263T213 1306Q182 1320 139 1328T69 1341V1419H848V1341Q816 1338 773 1333T697 1317Q658 1304 645 1277T632
1214V281Q632 215 641 177T676 121Q702 102 748 97T877 91Q957 91 1032 100T1141 142Q1192 193 1245 285T1331 455H1404Z" />
<glyph unicode="M" glyph-name="M" horiz-adv-x="2096" d="M2019 0H1250V78Q1284 81 1333 88T1401 103Q1438 118 1454 144T1470 210V1270L982 23H856Q847 56 812 154T754 311L395 1286V423Q395 299 411 235T465 140Q490 119 554 100T645 78V0H35V78Q60 81 116
91T209 128Q249 156 263 222T277 412V1115Q277 1179 261 1221T213 1289Q173 1320 131 1329T46 1341V1419H699L1049 482L1344 1243Q1359 1285 1373 1343T1388 1419H2017V1341Q1985 1339 1950 1333T1883 1317Q1844 1304 1832 1276T1819 1214V209Q1819 173 1831 149T1883
106Q1903 97 1948 89T2019 78V0Z" />
<glyph unicode="N" glyph-name="N" horiz-adv-x="1719" d="M1699 1341Q1671 1338 1619 1330T1525 1291Q1488 1264 1473 1199T1457 1006V-8H1279L395 1089V423Q395 299 411 235T465 140Q492 118 551 101T645 78V0H35V78Q74 81 124 92T209 128Q248 157 262 215T277
412V1084Q277 1134 262 1178T213 1255Q178 1289 133 1308T29 1339V1419H563L1339 459V996Q1339 1124 1322 1186T1268 1279Q1239 1302 1182 1318T1090 1341V1419H1699V1341Z" />
<glyph unicode="O" glyph-name="O" horiz-adv-x="1679" d="M1380 1261Q1485 1165 1546 1029T1608 719Q1608 564 1556 424T1406 183Q1303 78 1164 20T833 -39Q678 -39 540 12T297 160Q193 255 132 391T71 694Q71 868 130 1009T294 1252Q397 1351 538 1404T840 1458Q999
1458 1138 1406T1380 1261ZM1123 246Q1168 337 1188 452T1208 712Q1208 835 1191 951T1131 1159Q1088 1250 1017 1305T840 1360Q659 1360 565 1189T471 704Q471 571 491 453T556 247Q601 158 670 109T840 59Q939 59 1010 109T1123 246Z" />
<glyph unicode="P" glyph-name="P" horiz-adv-x="1436" d="M1399 1064Q1399 944 1350 858T1213 717Q1123 661 1008 636T748 611H632V212Q632 176 645 150T697 107Q717 99 762 90T838 78V0H69V78Q98 81 146 86T213 100Q252 116 264 139T277 203V1204Q277 1239 265
1264T213 1307Q185 1319 139 1328T69 1341V1419H852Q1127 1419 1263 1332T1399 1064ZM1009 1013Q1009 1173 945 1250T715 1328H632V705H674Q838 705 923 780T1009 1013Z" />
<glyph unicode="Q" glyph-name="Q" horiz-adv-x="1679" d="M1380 1261Q1485 1165 1546 1029T1608 719Q1608 472 1485 285T1135 16Q1138 -103 1207 -190T1370 -277Q1428 -277 1471 -270T1550 -254V-342Q1493 -366 1381 -390T1146 -415Q978 -415 870 -315T748 -34Q606
-20 484 36T269 187Q178 281 125 410T71 694Q71 868 130 1009T294 1252Q397 1351 538 1404T840 1458Q999 1458 1138 1406T1380 1261ZM1123 246Q1168 337 1188 452T1208 712Q1208 835 1191 951T1131 1159Q1088 1250 1017 1305T840 1360Q659 1360 565 1189T471 704Q471
571 491 453T556 247Q601 158 670 109T840 59Q939 59 1010 109T1123 246Z" />
<glyph unicode="R" glyph-name="R" horiz-adv-x="1633" d="M1698 0H1154Q1013 216 920 344T687 640H632V209Q632 173 645 148T697 106Q716 98 756 90T826 78V0H69V78Q98 81 145 86T213 100Q251 116 264 140T277 203V1204Q277 1240 266 1264T213 1306Q181 1319
138 1328T69 1341V1419H865Q1132 1419 1270 1336T1409 1083Q1409 934 1324 844T1063 702Q1131 614 1221 498T1410 261Q1441 222 1494 166T1589 96Q1612 89 1647 84T1698 78V0ZM1017 1055Q1017 1197 938 1262T711 1328H632V734H708Q855 734 936 811T1017 1055Z"
/>
<glyph unicode="S" glyph-name="S" horiz-adv-x="1329" d="M664 -38Q534 -38 422 -6T231 70L162 0H77L64 513H150Q179 440 224 359T328 214Q389 147 464 105T641 63Q777 63 849 129T922 297Q922 380 861 436T670 534Q586 561 516 584T383 631Q240 688 171 794T101
1031Q101 1114 137 1190T242 1328Q308 1385 411 1421T635 1457Q753 1457 856 1425T1018 1359L1079 1419H1166L1174 935H1088Q1058 1013 1018 1094T932 1230Q883 1288 819 1322T669 1357Q561 1357 493 1296T424 1145Q424 1060 483 1006T669 911Q743 886 820 861T957
813Q1102 757 1177 659T1253 414Q1253 322 1210 236T1094 93Q1014 30 909 -4T664 -38Z" />
<glyph unicode="T" glyph-name="T" horiz-adv-x="1401" d="M1388 1013H1311Q1280 1104 1212 1208T1085 1320Q1053 1324 1006 1327T925 1330H878V217Q878 181 891 154T942 110Q965 101 1013 92T1096 78V0H305V78Q334 81 386 86T458 100Q497 116 510 143T523 207V1330H476Q442
1330 395 1327T316 1320Q258 1312 190 1208T90 1013H13V1419H1388V1013Z" />
<glyph unicode="U" glyph-name="U" horiz-adv-x="1707" d="M1703 1341Q1674 1338 1620 1328T1528 1291Q1490 1266 1475 1201T1459 1006V478Q1459 245 1301 103T883 -39Q580 -39 414 98T248 480V1206Q248 1241 235 1266T183 1311Q157 1324 119 1332T57 1343V1419H801V1343Q769
1341 736 1336T669 1319Q631 1307 618 1279T605 1216V500Q605 289 698 193T968 97Q1142 97 1241 203T1340 515V996Q1340 1124 1323 1187T1269 1279Q1243 1301 1179 1319T1088 1341V1419H1703V1341Z" />
<glyph unicode="V" glyph-name="V" horiz-adv-x="1561" d="M1602 1339Q1569 1336 1539 1327T1477 1299Q1434 1274 1411 1246T1364 1167Q1333 1098 1277 966T1149 664Q1085 512 1011 331T868 -16H667Q527 327 382 681T178 1173Q155 1223 134 1248T65 1301Q31 1320
5 1327T-64 1341V1419H705V1343Q597 1330 559 1316T520 1279Q520 1268 523 1256T534 1222Q566 1134 650 935T899 326Q1000 575 1067 747T1185 1051Q1210 1115 1226 1170T1243 1254Q1243 1286 1197 1307T1027 1339V1419H1602V1339Z" />
<glyph unicode="W" glyph-name="W" horiz-adv-x="2307" d="M2345 1339Q2314 1336 2283 1326T2222 1299Q2176 1273 2157 1242T2121 1167Q2066 1015 1952 680T1713 -16H1512L1137 1039L799 -16H598Q431 470 342 732T192 1173Q173 1227 149 1251T87 1301Q60 1319
30 1327T-41 1341V1419H716V1343Q649 1335 616 1328T564 1312Q546 1304 542 1295T538 1279Q538 1265 541 1252T549 1222Q573 1144 646 926T826 385L1149 1419H1361L1736 353Q1819 610 1868 773T1952 1052Q1972 1123 1984 1171T1996 1254Q1996 1275 1977 1290T1924
1316Q1896 1325 1852 1330T1774 1339V1419H2345V1339Z" />
<glyph unicode="X" glyph-name="X" horiz-adv-x="1656" d="M1659 0H794V78Q918 85 954 99T990 138Q990 151 977 179T941 245Q906 304 848 392T726 575Q516 332 460 252T403 146Q403 132 407 123T431 104Q445 96 479 89T560 78V0H9V78Q52 81 77 87T128 104Q186
131 231 172T324 269Q394 348 482 448T667 661Q575 800 483 931T327 1154Q295 1200 248 1246T148 1312Q122 1323 90 1330T13 1341V1419H880V1341Q779 1337 731 1323T682 1281Q682 1267 691 1246T729 1178Q753 1138 803 1061T918 886Q1107 1111 1155 1179T1204 1273Q1204
1302 1176 1316T1045 1341V1419H1598V1341Q1560 1340 1536 1334T1479 1315Q1417 1287 1375 1246T1283 1150Q1209 1068 1142 991T976 801Q1097 619 1183 496T1346 265Q1376 219 1423 173T1522 106Q1546 97 1577 89T1659 78V0Z" />
<glyph unicode="Y" glyph-name="Y" horiz-adv-x="1499" d="M1567 1341Q1531 1337 1501 1328T1444 1303Q1401 1279 1368 1242T1302 1158Q1237 1063 1166 952T1010 706Q955 621 943 576T930 418V217Q930 181 943 154T995 110Q1012 103 1067 92T1148 78V0H357V78Q385
80 437 86T511 100Q548 116 561 142T575 207V457Q575 490 574 515T567 557Q560 576 543 605T499 682Q422 817 350 938T213 1165Q179 1220 145 1253T74 1308Q47 1323 9 1331T-61 1341V1419H752V1341Q640 1338 601 1326T562 1291Q562 1280 576 1247T628 1145Q662
1080 727 966T885 699Q1075 1000 1146 1119T1217 1266Q1217 1300 1176 1318T1041 1341V1419H1567V1341Z" />
<glyph unicode="Z" glyph-name="Z" horiz-adv-x="1412" d="M1397 479L1349 0H17V61L934 1327H623Q528 1327 486 1322T407 1299Q364 1283 312 1215T173 986H92L136 1419H1370V1358L453 92H810Q978 92 1038 105T1127 154Q1184 223 1232 305T1322 479H1397Z" />
<glyph unicode="[" glyph-name="bracketleft" horiz-adv-x="915" d="M847 -310H185V1519H847V1420H500V-210H847V-310Z" />
<glyph unicode="\" glyph-name="backslash" horiz-adv-x="966" d="M939 -424H759L68 1523H250L939 -424Z" />
<glyph unicode="]" glyph-name="bracketright" horiz-adv-x="915" d="M731 -310H69V-210H416V1420H69V1519H731V-310Z" />
<glyph unicode="^" glyph-name="asciicircum" horiz-adv-x="1440" d="M1233 760H1037L720 1273L403 760H209L651 1456H791L1233 760Z" />
<glyph unicode="_" glyph-name="underscore" horiz-adv-x="1440" d="M1445 -302H-5V-180H1445V-302Z" />
<glyph unicode="`" glyph-name="grave" horiz-adv-x="1024" d="M741 1139L699 1101Q533 1201 449 1245T304 1331Q257 1363 238 1387T218 1460Q218 1496 256 1522T343 1548Q404 1548 440 1530T522 1444Q555 1396 611 1317T741 1139Z" />
<glyph unicode="a" glyph-name="a" horiz-adv-x="1220" d="M1201 21Q1157 2 1097 -14T970 -30Q847 -30 789 6T710 111H704Q670 77 639 53T571 12Q524 -10 481 -20T359 -31Q243 -31 161 37T79 219Q79 284 97 329T148 410Q178 442 217 463T304 502Q394 535 520 570T704
634V730Q704 755 700 796T683 865Q669 897 639 919T560 941Q516 941 487 929T439 903Q442 883 456 842T470 763Q470 746 461 721T435 680Q412 660 384 649T296 638Q212 638 169 678T126 784Q126 840 170 884T279 958Q342 988 424 1004T576 1021Q673 1021 754 1010T900
962Q962 927 998 861T1035 687Q1035 574 1031 419T1026 215Q1026 170 1039 144T1081 105Q1098 97 1134 96T1201 94V21ZM704 542Q648 523 593 499T503 447Q466 419 445 376T424 273Q424 195 459 160T547 125Q602 125 637 147T700 203L704 542Z" />
<glyph unicode="b" glyph-name="b" horiz-adv-x="1322" d="M1251 489Q1251 264 1103 116T726 -32Q638 -32 575 -20T467 11Q421 30 394 48T350 79L207 -51L148 -28Q153 45 156 130T160 361V1297Q160 1335 145 1367T103 1417Q84 1429 48 1438T-20 1449V1522L474
1548L489 1532V882H495Q568 953 645 986T799 1019Q1009 1019 1130 876T1251 489ZM892 477Q892 553 881 623T842 748Q815 802 771 834T662 867Q601 867 561 847T489 788V206Q495 186 511 154T545 103Q569 77 596 64T672 50Q774 50 833 161T892 477Z" />
<glyph unicode="c" glyph-name="c" horiz-adv-x="1088" d="M629 -32Q490 -32 384 8T208 119Q139 190 105 287T71 498Q71 602 112 696T225 861Q298 934 406 977T646 1021Q830 1021 937 952T1044 764Q1044 692 1006 648T875 604Q800 604 750 640T699 734Q699 783
715 831T734 904Q723 922 706 931T653 941Q608 941 571 920T502 846Q471 796 453 712T434 510Q434 332 517 223T717 114Q828 114 893 163T1010 304L1085 252Q1054 191 1011 141T908 51Q845 10 780 -11T629 -32Z" />
<glyph unicode="d" glyph-name="d" horiz-adv-x="1358" d="M1351 21L858 -8L843 6V98L836 100Q787 47 704 8T535 -32Q333 -32 202 118T71 506Q71 717 217 868T572 1019Q654 1019 726 1001T841 957V1284Q841 1321 826 1353T786 1404Q755 1426 709 1435T615 1449V1522L1155
1548L1170 1532V221Q1170 183 1182 157T1223 116Q1244 105 1284 100T1351 94V21ZM841 199V764Q834 787 822 815T787 868Q767 889 734 905T658 921Q558 921 494 808T430 489Q430 408 441 344T482 226Q511 173 556 143T666 113Q727 113 767 136T841 199Z" />
<glyph unicode="e" glyph-name="e" horiz-adv-x="1171" d="M1133 239Q1098 182 1049 132T936 45Q869 7 801 -12T643 -32Q495 -32 388 10T210 123Q140 194 106 290T71 500Q71 602 108 695T215 862Q283 933 386 977T618 1021Q758 1021 848 987T997 893Q1054 836
1080 759T1106 596V531H430Q430 326 509 219T760 112Q854 112 929 163T1057 294L1133 239ZM751 619Q751 679 745 742T724 845Q707 892 678 916T603 940Q526 940 480 862T430 615L751 619Z" />
<glyph unicode="f" glyph-name="f" horiz-adv-x="805" d="M1004 1379Q1004 1354 996 1324T970 1273Q949 1248 923 1235T845 1222Q766 1222 721 1277T625 1460Q585 1443 560 1372T535 1067V988H811V880H537V191Q537 152 555 131T602 99Q626 91 665 84T735 73V0H60V73Q86
75 110 78T154 88Q186 100 197 122T209 182V880H6V988H209Q209 1095 240 1195T336 1375Q399 1453 502 1501T744 1549Q868 1549 936 1502T1004 1379Z" />
<glyph unicode="g" glyph-name="g" horiz-adv-x="1181" d="M1178 880H958Q997 836 1016 787T1036 685Q1036 616 999 556T902 457Q841 418 759 396T581 374H418Q406 365 392 346T377 308Q377 264 412 247T539 228Q630 226 723 221T856 214Q914 211 971 191T1070
137Q1116 102 1146 48T1176 -78Q1176 -154 1140 -221T1028 -337Q949 -388 839 -416T565 -444Q302 -444 165 -380T28 -188Q28 -109 102 -58T332 -2V10Q240 41 189 92T137 212Q137 254 157 283T210 334Q238 353 278 366T345 388V399Q210 449 147 521T83 697Q83 844
218 932T562 1020Q630 1020 693 1009T790 988H1178V880ZM709 689Q709 806 672 874T558 942Q519 942 490 924T443 870Q426 836 420 791T414 697Q414 588 452 518T560 448Q632 448 670 511T709 689ZM877 -151Q877 -117 858 -84T773 -29Q737 -23 655 -21T428 -19Q393
-49 370 -90T346 -189Q346 -214 360 -244T404 -300Q439 -329 482 -345T612 -362Q741 -362 809 -312T877 -151Z" />
<glyph unicode="h" glyph-name="h" horiz-adv-x="1392" d="M1358 0H756V73Q776 75 803 78T843 88Q864 99 872 120T881 182V650Q881 753 843 804T733 855Q693 855 659 843T591 808Q562 788 545 767T515 730V193Q515 156 524 135T558 99Q573 90 597 83T645 73V0H37V73Q63
75 87 78T131 88Q163 100 174 122T186 182V1297Q186 1329 171 1365T129 1419Q109 1432 71 1439T3 1449V1522L500 1548L515 1532V844H519Q557 878 587 905T662 961Q699 985 758 1002T887 1019Q1049 1019 1130 926T1212 681V191Q1212 154 1223 132T1264 97Q1282 89
1304 83T1358 73V0Z" />
<glyph unicode="i" glyph-name="i" horiz-adv-x="724" d="M690 0H58V73Q84 75 109 78T152 88Q184 100 197 122T210 182V764Q210 799 194 825T154 868Q136 880 100 891T33 905V978L523 1004L538 989V195Q538 160 553 136T596 99Q616 90 640 83T690 73V0ZM544 1364Q544
1288 486 1235T347 1181Q266 1181 208 1234T149 1364Q149 1440 207 1494T347 1548Q428 1548 486 1494T544 1364Z" />
<glyph unicode="j" glyph-name="j" horiz-adv-x="709" d="M551 118Q551 15 516 -90T416 -270Q345 -352 244 -398T13 -444Q-108 -444 -173 -398T-239 -272Q-239 -244 -233 -220T-205 -170Q-189 -148 -156 -133T-80 -117Q3 -117 48 -176T140 -355Q181 -332 200 -257T220
69V760Q220 795 205 821T164 866Q145 879 104 890T30 905V978L536 1004L551 989V118ZM555 1364Q555 1288 497 1235T358 1181Q277 1181 219 1234T160 1364Q160 1440 218 1494T358 1548Q439 1548 497 1494T555 1364Z" />
<glyph unicode="k" glyph-name="k" horiz-adv-x="1294" d="M1341 0H870Q783 153 711 259T575 457L515 406V188Q515 152 525 129T566 95Q584 87 608 81T656 73V0H37V73Q62 75 87 78T131 88Q163 99 174 122T186 182V1297Q186 1330 172 1365T129 1419Q110 1431 72
1439T3 1449V1522L500 1548L515 1532V500Q589 566 681 653T830 797Q863 831 866 848T870 870Q870 888 839 900T744 921V992H1252V923Q1152 895 1100 871T985 805Q944 778 906 749T817 675Q915 533 998 412T1172 156Q1203 109 1249 93T1341 73V0Z" />
<glyph unicode="l" glyph-name="l" horiz-adv-x="705" d="M667 0H40V73Q66 75 90 78T134 88Q166 100 177 122T189 182V1290Q189 1328 174 1360T132 1410Q112 1423 72 1435T0 1449V1522L503 1548L518 1532V195Q518 158 531 135T573 99Q593 90 615 83T667 73V0Z" />
<glyph unicode="m" glyph-name="m" horiz-adv-x="2080" d="M2045 0H1449V73Q1471 76 1495 78T1535 88Q1557 98 1563 121T1569 182V649Q1569 752 1533 803T1428 855Q1385 855 1352 842T1290 808Q1261 787 1245 766T1218 730V193Q1218 157 1226 135T1258 99Q1274
90 1294 83T1338 73V0H767V73Q786 75 813 78T853 88Q874 99 880 120T887 182V649Q887 752 851 803T746 855Q703 855 670 842T608 808Q579 787 563 766T536 730V193Q536 158 545 135T577 99Q593 90 613 83T657 73V0H58V73Q84 75 109 78T152 88Q184 100 196 122T208
182V764Q208 796 191 826T150 874Q132 886 105 894T44 905V978L521 1004L536 989V848H540Q568 873 606 907T679 963Q716 987 774 1003T901 1019Q1015 1019 1091 970T1200 838H1209Q1238 865 1280 901T1357 960Q1396 985 1456 1002T1586 1019Q1737 1019 1818 930T1900
677V191Q1900 154 1911 132T1951 97Q1967 90 1990 83T2045 73V0Z" />
<glyph unicode="n" glyph-name="n" horiz-adv-x="1413" d="M1378 0H776V73Q795 75 822 78T863 88Q884 99 893 120T902 182V650Q902 752 865 803T754 855Q714 855 680 843T612 808Q583 788 566 767T536 730V193Q536 158 546 135T579 99Q595 90 619 83T666 73V0H58V73Q83
75 108 78T152 88Q184 99 196 122T208 182V764Q208 795 192 825T150 874Q132 886 105 894T44 905V978L521 1004L536 989V844H540Q568 869 608 904T682 961Q719 985 779 1002T907 1019Q1070 1019 1151 927T1233 681V191Q1233 154 1244 132T1285 97Q1301 90 1324
83T1378 73V0Z" />
<glyph unicode="o" glyph-name="o" horiz-adv-x="1302" d="M1079 874Q1153 805 1192 709T1231 501Q1231 390 1193 292T1080 123Q1001 48 892 8T641 -32Q519 -32 417 3T235 108Q159 175 115 273T71 494Q71 614 109 707T225 874Q299 944 407 982T650 1021Q790 1021
896 983T1079 874ZM823 181Q845 237 855 317T866 503Q866 573 856 663T826 805Q802 868 760 904T652 940Q581 940 539 901T473 800Q452 743 444 667T436 507Q436 398 443 327T477 183Q500 121 543 85T652 49Q712 49 755 82T823 181Z" />
<glyph unicode="p" glyph-name="p" horiz-adv-x="1347" d="M1276 487Q1276 276 1135 125T778 -26Q682 -26 622 -7T523 41H515V-240Q515 -275 530 -301T574 -339Q601 -350 650 -359T733 -370V-444H11V-370Q36 -368 74 -363T131 -351Q163 -340 174 -314T186 -253V770Q183
803 171 828T131 872Q111 885 78 893T13 905V978L500 1004L515 991V880L523 878Q589 945 669 982T829 1019Q1036 1019 1156 873T1276 487ZM917 483Q917 558 906 626T867 749Q840 803 796 835T687 867Q622 867 583 845T515 786V219Q521 199 538 168T572 117Q597
90 629 77T699 64Q798 64 857 170T917 483Z" />
<glyph unicode="q" glyph-name="q" horiz-adv-x="1328" d="M1355 -444H655V-370Q683 -368 722 -364T784 -351Q815 -341 828 -315T841 -253V96L833 98Q816 82 789 59T722 18Q679 -3 640 -14T535 -26Q327 -26 199 118T71 506Q71 727 224 873T611 1019Q729 1019 824
993T1001 923L1131 1051L1186 1038Q1183 975 1177 874T1170 705V-236Q1170 -273 1183 -299T1227 -339Q1249 -349 1287 -358T1355 -370V-444ZM841 199V764Q834 789 822 818T786 874Q764 899 732 915T653 931Q553 931 492 814T430 491Q430 407 443 343T482 230Q512
177 554 148T666 119Q730 119 770 140T841 199Z" />
<glyph unicode="r" glyph-name="r" horiz-adv-x="1065" d="M1054 809Q1054 733 1007 676T883 618Q810 618 760 655T709 764Q709 799 714 818T723 855Q677 853 626 823T536 743V194Q536 159 547 136T584 100Q606 89 655 82T727 73V0H58V73Q83 75 108 78T152 88Q184
99 196 122T208 182V764Q208 800 191 828T150 874Q132 886 105 894T44 905V978L521 1004L536 989V844H540Q609 924 686 969T848 1015Q941 1015 997 958T1054 809Z" />
<glyph unicode="s" glyph-name="s" horiz-adv-x="1050" d="M521 -34Q424 -34 332 -6T188 55L158 -13H80L67 360H140Q155 315 190 259T270 157Q317 112 377 81T507 50Q598 50 642 85T687 195Q687 235 667 261T612 306Q573 326 527 340T412 374Q344 394 296 414T195
479Q150 518 123 573T96 704Q96 845 214 932T525 1019Q616 1019 692 1001T821 960L842 1019H918L934 678H863Q828 782 743 857T560 933Q483 933 439 901T395 812Q395 736 459 702T640 638Q819 592 902 513T985 310Q985 146 857 56T521 -34Z" />
<glyph unicode="t" glyph-name="t" horiz-adv-x="814" d="M802 46Q738 18 665 -4T487 -27Q331 -27 256 49T180 266V880H0V988H184V1291H509V988H789V880H511V332Q511 215 543 166T660 117Q687 117 735 121T802 130V46Z" />
<glyph unicode="u" glyph-name="u" horiz-adv-x="1386" d="M1363 21L886 -8L871 6V137H865Q831 106 799 77T721 23Q670 -4 625 -17T492 -30Q341 -30 261 61T180 318V768Q180 807 165 831T125 875Q105 890 73 896T15 905V978L500 1004L511 989V324Q511 221 550
172T659 123Q730 123 786 160T869 239V778Q869 812 856 839T818 883Q800 895 767 899T698 905V978L1183 1004L1198 989V217Q1198 182 1212 158T1253 116Q1272 104 1302 100T1363 94V21Z" />
<glyph unicode="v" glyph-name="v" horiz-adv-x="1161" d="M1198 919Q1153 912 1111 885T1040 801Q970 655 903 507T770 219Q750 177 725 111T682 -9H498Q383 258 302 434T129 812Q108 859 64 886T-27 919V992H589V919Q555 918 509 904T463 868Q463 862 467 850T477
823Q509 747 573 604T710 303Q760 412 805 516T918 783Q927 807 928 822T930 842Q930 860 913 873T871 897Q846 907 823 912T785 919V992H1198V919Z" />
<glyph unicode="w" glyph-name="w" horiz-adv-x="1768" d="M1782 919Q1736 912 1697 889T1631 801Q1561 630 1519 525T1401 222Q1385 181 1363 109T1327 -9H1132L880 671L644 -9H451Q350 264 292 414T137 812Q119 859 76 886T-14 919V992H600V919Q566 916 519
903T472 868Q472 858 474 851T483 823Q510 745 557 622T667 334L889 992H1087L1340 312Q1398 466 1429 554T1509 783Q1516 804 1517 820T1518 842Q1518 860 1500 874T1457 898Q1432 907 1409 912T1369 919V992H1782V919Z" />
<glyph unicode="x" glyph-name="x" horiz-adv-x="1204" d="M1198 0H573V73Q622 76 655 81T688 104Q688 112 680 129T658 167Q639 198 593 265T505 389Q447 322 408 274T326 171Q311 153 305 138T299 120Q299 97 331 85T409 73V0H3V73Q84 90 132 127T198 184Q271
262 321 313T457 458Q400 537 319 651T184 838Q157 874 118 893T17 919V992H628V919Q595 919 563 915T531 901Q531 893 536 881T549 856Q568 824 609 762T697 632Q742 687 772 722T851 821Q869 845 873 857T878 872Q878 889 857 902T772 919V992H1170V919Q1121
911 1075 886T979 808Q901 727 866 690T748 565Q794 500 881 376T1031 167Q1058 129 1091 105T1198 73V0Z" />
<glyph unicode="y" glyph-name="y" horiz-adv-x="1151" d="M1188 919Q1143 912 1101 885T1030 801Q944 619 853 414T651 -31Q589 -165 531 -245T422 -368Q374 -408 327 -426T232 -444Q137 -444 79 -391T20 -272Q20 -244 26 -220T54 -170Q70 -148 103 -133T179
-117Q235 -117 286 -156T392 -264Q425 -231 473 -166T545 -31Q426 219 334 402T128 812Q103 860 61 886T-28 919V992H584V919Q550 918 506 904T461 868Q461 860 464 851T475 823Q509 753 571 629T717 337Q779 479 822 581T907 783Q917 808 918 822T920 842Q920
860 903 873T861 897Q836 907 813 912T775 919V992H1188V919Z" />
<glyph unicode="z" glyph-name="z" horiz-adv-x="1076" d="M1028 0H44V69L618 901Q499 901 404 898T254 874Q235 867 204 802T154 665H83V992H1013V930L437 91Q461 91 507 90T595 89Q644 89 700 91T787 98Q828 103 852 126T891 181Q904 210 925 268T957 373H1028V0Z" />
<glyph unicode="{" glyph-name="braceleft" horiz-adv-x="1024" d="M956 -333Q824 -333 715 -321T527 -269Q449 -229 407 -154T365 47Q365 107 371 171T378 291Q378 363 358 407T297 477Q256 503 198 512T72 527V677Q138 682 197 691T297 727Q338 754 358 794T378
913Q378 970 372 1033T365 1157Q365 1280 406 1355T527 1473Q601 1512 714 1524T956 1537V1450Q902 1446 862 1440T779 1407Q743 1385 721 1340T698 1221V1031Q698 927 670 856T589 742Q540 701 475 678T334 640V564Q406 550 473 526T589 461Q639 419 668 350T698
173V-17Q698 -91 720 -135T779 -204Q815 -226 862 -235T956 -246V-333Z" />
<glyph unicode="|" glyph-name="bar" horiz-adv-x="794" d="M483 -424H312V1523H483V-424Z" />
<glyph unicode="}" glyph-name="braceright" horiz-adv-x="1024" d="M953 527Q886 522 828 513T728 477Q687 451 667 407T647 291Q647 236 653 172T660 47Q660 -78 618 -153T498 -269Q420 -309 311 -321T69 -333V-246Q116 -244 164 -235T246 -204Q283 -180 305
-136T327 -17V173Q327 280 356 349T436 461Q484 502 551 526T691 564V640Q615 654 550 678T436 742Q384 785 356 856T327 1031V1221Q327 1295 305 1340T246 1407Q203 1433 163 1439T69 1450V1537Q197 1537 309 1526T498 1473Q578 1430 619 1355T660 1157Q660 1097
654 1034T647 913Q647 834 667 794T728 727Q766 702 826 692T953 677V527Z" />
<glyph unicode="~" glyph-name="asciitilde" horiz-adv-x="1440" d="M1295 735Q1275 680 1242 622T1167 519Q1116 463 1057 430T930 396Q854 396 792 422T671 483Q625 511 565 541T458 571Q392 571 343 524T249 372L145 414Q160 458 192 517T273 630Q318 681 379
717T510 753Q592 753 655 725T771 665Q824 633 875 606T982 578Q1052 578 1101 630T1191 777L1295 735Z" />
</font>
</defs>
</svg>
